<mxfile host="app.diagrams.net" agent="Mozilla/5.0 (Windows NT 10.0; Win64; x64) AppleWebKit/537.36 (KHTML, like Gecko) Chrome/132.0.0.0 Safari/537.36 Edg/132.0.0.0" version="26.0.8">
  <diagram name="第 1 页" id="CRG1flSJgQ9oSFKERG51">
    <mxGraphModel dx="830" dy="525" grid="1" gridSize="10" guides="1" tooltips="1" connect="1" arrows="1" fold="1" page="1" pageScale="1" pageWidth="827" pageHeight="1169" math="1" shadow="0">
      <root>
        <mxCell id="0" />
        <mxCell id="1" parent="0" />
        <mxCell id="_YG597njgodiEOvkwe5J-1" value="" style="shape=image;verticalLabelPosition=bottom;labelBackgroundColor=default;verticalAlign=top;aspect=fixed;imageAspect=0;image=data:image/png,iVBORw0KGgoAAAANSUhEUgAAAq0AAAGCCAIAAABFLG2CAAAgAElEQVR4AeydB1gU19fGJytWLNEYTVFjoommmJjENJMYY6Lmb0XFbtRYE10borFHY4ttERVjixF7BzvYFuldEKSqEBGsiIDU3R2+DwZmZyvbd8q7D4/Ozty595zfmZnz7p07d4gyfEAABEAABEAABIRKgBCq4/AbBEAABEAABECgDDoABwEIgIAKAblC8Sy/+N6j/KT/nl5PeRSV9DAi8UHozfvhCQ+ikh5eT3mUmJ6d8TAvJ79YJleo7IkvIAACHCQAHcDBoMFkELAQAZIks3OL4m4/9glN33325vqDUQu3B02TSMUG/83fFrTuQOQ/Z+LPBafFpD56nFNIkqSFrEM1IAACtiAAHWALymgDBNhDQC5XpGbk+ISmb/O+Me/vQP0p32WTv6tHwNytgb//HTR3a6CrR4DLZn/9u8z1CPA4EXsu+E7Sf09LZegwYE/kYQkIaCcAHaCdC9aCAM8IPC8sDYnP2nUm3nWLeiKf7ua3dHf4lpM391267RV073LM45Ck3Jj0wqQsWcoDueZfUpYsNr0oNDnvSsyTU8GZ+y/d8fBO+HNPxIyNfmoSwWXTtW3eNwJiM3OfF/OMJ9wBAd4QgA7gTSjhCAhoIVBQVOofc2/TsevT3FR6+xfvCt3qnXAyMCMo8VliZqlmsjdhTVKWLCQp1zvo3rbTiX/sDlfTBJLD0Vej7uYVlGixEqtAAATsRwA6wH7s0TIIWI0ASZK37uV4XkiY6a78jT7T/Zrk6I2TgRlRtwtMSPPG7nI9rfBUcKb78TiXTcoeiOkb/f45E5+Ynq3AMAKrRR8Vg4BRBKADjMKFwiDAdgKlMnlIfNbqvcqf4zPdr20+efNCxIOb90qMzeUWKZ+QWXox+tFW7wTm2II//w29FnOvuETGdqCwDwT4TgA6gO8Rhn+CIVBSKr8U8R9z6N+feyJOBGTEZRRbJJ2bX8nNeyWngjNX7ouibxnM8Qg4F3ynsBhqQDCHKRxlHwHoAPbFBBaBgJEESmUKaXTG/G2Vg/+nuUk3nYj3j39qfua2Ug1Bic+2eifQ4wrneAT4hqUXl8qN9BvFQQAELEAAOsACEFEFCNiLAEmS0ckP//gnhPqFPX2j386zyVF3bHH733yJEJNeuMcndab7Ncr4BduDQuKzFApMP2CvowntCpQAdIBAAw+3eUDg3qP8DYcq+9inuUm3nU60zQBA8xUAs4aY9MJd51KmVz1zuHpv+J2sZzyIDlwAAa4QgA7gSqRgJwgoCZTKFGeD7kyvehRww5HY0OQ8ZnLl3HLkrefuJ+LpcQPHpCkYQqiMN5ZAwJoEoAOsSRd1g4AVCNx9kLdiTxiVMhfuCLkS85hzWV+Xwdfin9ITDyzZFZKakWMFfqgSBEBAhQB0gAoOfAEBNhOQKxQXQtOoboBpbtJ/fVIT7PQooK5Ebv76xKzSA5fv0LcJTl67hcmJ2XxMwjYeEIAO4EEQ4YIgCOQ+L3Y7Ek11AyzeFRpwM8f8pMvaGkKT8/7cE0E5u3pfxONnhYKIMZwEAXsQgA6wB3W0CQJGEriT9WzB9iAqL+48m8y/bgBNRZKYVep58Rbl8lyPgMT0bCOZoTgIgIBBBKADDMKEQiBgRwIh8VlUP/msTf4XIh9qpkwer7kS+8TVI0AskU6TSK9E3sVLje14HKJpvhKADuBrZOEXHwgoSPJUwG36XgDXHwowTa9E3X5O3yM4dClJLse7jPlwbMMH9hCADmBPLGAJCKgQkMkV/5ytfJRu7cHrcXfZMj2waencnL0S7pW4H4+j9NCWEzGYeVDlQMEXEDCPAHSAefywNwhYh0CpTP631w0q820/k5SUJTMnj/Jg3+T7Mk/fyuECbkei8UoC6xx3qFWIBKADhBh1+MxyAiUy+ZYTMZQI2H/5TvJ9oYsAWsecCMigsKw7GFlQVMryOMI8EOAEAegAToQJRgqIQKlMQYuAQ9J0OgVigSLgHXSPkgLrD0YV4bXFAjoz4Kq1CEAHWIss6gUBEwjI5Ypt3pW3A476/Yfcr5XA6ZBMSgq4HYkuwVsKTTjOsAsIMAhABzBgYBEE7EqAJEnP8wlUhjt0FT0Bcq0igFrpVdUrsPVkrFyBJwjseuCicY4TgA7geABhPo8InA9Jo0TA3ou39aRAbKIIHPe/S+E6ejWFR0cBXAEBWxOADrA1cbQHAloJRCY9pLKah3cCBgYaqHV2X0ihoPldz9BKFStBAASqJQAdUC0iFAABqxPIeJg3y/2aWCJdvT86MbPUwCyIYsn3ZZKj5cMpprlJU/ByQqsfp2iAnwSgA/gZV3jFIQLPi0r/2BUilkjnbw+O/a8I2d0oAjfvlVCvKp73d+DTvCIOxR2mggBLCEAHsCQQMEOgBEiS3HoyViyRznC/FpT4zKgUiMIUgfDUfJfN/mKJdN3BSMw6LNATCW6bQQA6wAx42BUEzCZwLabyafjTIZnI6yYTuBj9iBoocC44zeyYoAIQEBYB6ABhxRvesorAw6cF1LCAzSdvmpwCsSNFYNe58jGD09yk6fdzWRVlGAMCLCcAHcDyAME83hJQKMj1h6LEEum8v4OE/A4hS+mYhHsli3eFiiXS5f+GlcowowBvTxw4ZnEC0AEWR4oKQcAgAn7RlVPlX77+2FK5UOD1BCbkTHOTiiXSs0F3DIoBCoEACJSVQQfgKAABOxDIzi1y2VT+oOBW7wSBJ2/Luv+vT6pYIp3uJs18nG+HuKJJEOAgAegADgYNJnOfwM7TcWKJdO7WwBt38aCgvvmDjVUJCfdKFu4sfwjT7Ug0SZLcP1LgAQhYnQB0gNURowEQUCNw694zanD76ZAsY/McyldL4PL1xxTe2NTHauTxFQRAQJMAdIAmE6wBASsSIEly/cHy4YF/7onA/MHVJnXTCqw7FCOWSJftDsV0AlY8lFE1XwhAB/AlkvCDIwRiUiufdL8a+8S0JIe9qiUQkpRLdQkExmZy5LiAmSBgNwLQAXZDj4YFSEBBkis9w8tnvjsUU20yQwFzCGzxuimWSBftCC6VyQV4pMFlEDCcAHSA4axQEgTMJRCZ9KDyd2pCjjlJDvtWSyDiVj71DKFfNF5FaO5xi/35TQA6gN/xhXcsIkCS5Kq95Z0BkqM3qk1jKGA+gW2nE6kuAbkC0wqx6ESAKWwjAB3AtojAHt4SSMnIoToD/OPRGWDJZwV1KYbw1HwKeHTyQ94eVXAMBMwmAB1gNkJUAAKGEdhxqnzOgBWekbryFtZbnMCGI+XvcpQcjjYsRCgFAkIkAB0gxKjDZ9sTeJpXNE1SMeVtKOYMsEVnACUpLsdUziVw7xGmF7T9UY8WuUEAOoAbcYKVXCdwPiRNLJHO8QhMzCy1+K9eVKiLQPJ92aKd5S8fOnolheuHEOwHASsRgA6wElhUCwJKAgoFuXhnsFgi3X0hRVfGwnorETh0Nb1CgQWU4AFC5SGJJRBQEoAOULLAEghYiUDSf0+pAWthKXlWynaoVheBmPTC6W5+Yok0MgmjBa10gKNabhOADuB2/GA9JwgcuZwslkiXe0boylVYb1UC6w+XTzP8z5l4ThwtMBIEbEwAOsDGwNGc4AgoSHLB9iCxRHrwappVsx0q10XAK+ieWCJ12XQNtwYEd/rBYQMIQAcYAAlFQMAMAneyKt8uGJ6SrytRYb1VCcSmF1FzC964hTcQmnEoY1eeEoAO4Glg4RZrCJwJvCOWSBfvCrVqqkPl+gms2lf+jsdDl5JYc1zAEBBgCwHoALZEAnbwlcCa/RHlN6fP40kB200boKkJDl4pf25z8c5gkiT5eqTBLxAwjQB0gGncsBcIGEQgr6CEelLg8vXHmskJa2xGICix8u7M/SfPDYocCoGAYAhABwgm1HDUHgRiU8vns5u+0S8B0wc9sGd/QPJ9matHgFgiDbqRaY8DAW2CAHsJQAewNzawzGYEcnNzd+7cWVxcbPEWTwXcxhODNvvRr78h6unBAxcxRMDihzkq5DYB6ABuxw/WW4rA2LFjW7ZsuW3btpKSEkvVWVZWtunYdbFEuvNssv4Uha02ILD/UvmAzZWe4RaML6oCAR4QgA7gQRDhggUIpKam1qhRgyAIC6oBkiRdt/iLJdJTIZnm5rm4w8Pavdr05eb0X/NPfve8bc+ednM9MuU2QUlYSFJQpoleX4ouv0czTSLFLAIWOGFQBY8IQAfwKJhwxTwCY8eOJao+rVq1Mr9vIDu3iBokGJyUa17WLLm6YVATUZVx1P+13hm1T0BjD2MjLi+b0L11h9meaSbqgOtphVQ4/nuQZ96Rgr1BgFcEoAN4FU44Yw4BukuAzrfNmzc3Rw3cuFU5SDAxy7x3DGbcWPB9QzUZQBAOr488EmrKr2oT86h5UsaMRpNjPOaP+vBlBxFB1Gxnug5IeSCf4xEolkiD47LMOU6wLwjwjAB0AM8CCnfMIjBmzBhaBNALrVq12r59uwnjBnzDyt9098fucDMzaPyFpZ/U1ZABBOHQfOT6mBIzK2f57jcDdjm9o9RAZuqANQfLh2uc8Es16yjBziDALwLQAfyKJ7wxj4Bml4A5auBwxeuFJEdizcu1OZ5TP6xJ28FcEDX9acOtRF53CcSdXtihttJnM3XA36cSxBLpLrxwyLzTBHvzjAB0AM8CCnfMJeDs7KxMOxpLRvUN/O11wwIPCyScHP6mg4Yh1ApRg+6bfDPM6HJnvYawrA6gHhlYdzDS3KME+4MAjwhAB/AomHDFEgT0dAnQydhANbB6b3j5nPZX083oDygJ8BjZTCkDarX6vPMbtWhDCJHjD79Liwyr/3ngRe/lv88cNmToT/1HD//1zxWH4yIqxt7fjLt50if0RNXfycDMmzr0QWxMxM6Nf02eMMHJaUCP3kOcfp41fcU+T/9HOvskUm+f8VXWfOJKagRVc/rdE7s2Tp04oX+/Qb2HTho/f+fOq1lqjcbG3DjhE3rU47d2DH9rthm/+mxFhb6RlxONvifiHZwplkgXbA+yxJGCOkCAJwSgA3gSSLhhQQJaRwkoc2/VUrVqYP628tcNm/XQYEbSsp8YDwrU+nDiYZ/JHepUmUAQRL1P5oXG60jbtD5IvBm84pdvX6mlOshAVO+Nn5bvjiwIcR9Sn1Fj/b47gzQrTI3dMnfoewxb6D1EtV7/eOiaXaHP6eboBW2/5ktCzno4d3xJ1RRCVLvVV78duqB8FqDowp896tJtaC44vDlyn9FPYVyMflQ+vaObH94yYMHzBVVxnQB0ANcjCPstT8CQLgE6Mb3xxhs7duzQHEVIkuR0Nz+xRHox+hGdF41diL/y15eOyoxZu+Oiw+nPj875knHHnKjdceGhdH23BhLjr7r80ELZp0CbXr4gavDpnM0rB+vXAYmxl1y6v1FTaYhKFRVfRHXaDFp0Tv05Rg0d4OJxcOHn2sREhS31PxT7hFVKEKvogMCEHOrRwYKiUssfN6gRBLhJADqAm3GD1VYmYGCXAJ0PNdVAQVEplXICE54Zm/6ryj8/7PKZMuWL6nWaHx7/QB5/edUX9Rg5udYH44/mVO2iIQgy0zeNaq8vhYtqNX/tdaZKUO8PuB02/8dXmQVor1UXRDXbjF4fqnKTQk0HOLzcoX0LtU4JlTpEjX5a6E/VYBUdEHW7gArKw6cFVj6CUD0IcIaAETqgV69eDviAgDAIUHMLquQoA74w1QA9iVB4ar7OJK3Z/c5ck3pu7DvKe+Mixx/n+VXkyIy4hd2Uj9IRRK3W405V3ndn7l6xfP3k7+/XZogGQlT7jR6jl3puO3R2q/uakV1aq2ys8FFVBxR4L+3eiFmBQ7MPnRf/ufPM7oNHV8z5+aOXmQrBodWwg9cY8/2p6YCK6kW1X/tm8Lzt7vvObnVfOejT5sz9CVH971clVQwUKLnqMeXrr7t+8XHbBozWRQ3e+rBz1y++7vrFtwNcvbTcidCPOi6jmNIBr7zxrjAOZHgpaAIGvjPFCB3Qs2dPA66EKAICQidAqYGsR7lUyom8bXS6opJZyM7xjN/pooY9Nl2sfDSg5PJaJ2ZudmgxblO8Rk9AuQ54vHXMW8xEW/PN4auu5SmTZdqN1c7vqD2UqKID1J5WEDX7er5fVdd9eYthp1d887IyUYscv597uYCuX1MH1Gwzeo2/0oDE6EOD31RqnXJNM/FcLEPNqNVg5nODN+9Vvga6eat3hX6Ywn8BEIAOEECQ4SJbCTRv3tzz4AlKB0TfUeZFOkFWv5B5e3X/5owEqzJVQGL07t6M7EuIXu3ncVfLoP20C7+8zciyoqbd11K/tpWiITFsx/+aKdshCIKpA8J2jH1FqSNEdT7746hyKB9VSd7xuZ3rKCuovHlBOaiWxQnRSz3WJqvambtzQltlC4So4eAD0VbTAYmZlTdrXmn9AVuPHdgFAhYjAB1gMZSoCAQMJ9C8eXM3N7eCgoL7T55TOuB6WmH1WZ+R+ajCNwM2dmH0/Yuaj1CdOjDTbVhLZvps0meHlNEhX1XJhm/qKW0XNRq0KlrzWbt76wapCAGGDsjbPfldRm9BvU/nhWk+mxDvu/xT5ch+kWPPLVeqLFHXAfV+nH9NZQBByoOis0t/UO5NEPX77w5h0FCrwcz+gKQsGRWU1976UMkFSyDAUwJW1wG/4wMC/CXQt29fY68MtAKgRgc9fFo5JC3KlP6AghPzv2H8yHZ4fcRhZnZMeSAP/3dSK6YQaNhrSZBaipXHHnVpy+gO0PFkQYHX/G+YTyIqdUBm6tKejCcJRE2ctj3VomlSDw1kPAbo8KZ4Z9WLENWyuKjJaLcUZVdERVUlfuucHBms6/fdxXxqUa0GM3VAQlV/gOui1fw9eOGZcAkwzqTyRevqgM8++4wzQyFhKAgYSUAul7dr107tjNLztXnz5hKJpKBAZQj642eVb7eLvGX8+IDbVyZ9wEjNDq/3WRN8Rnpd5c9nuxPzYUBR/c5/XFebiuf67gmMWwtE3e/Wndcy+WCJ39r+qpm4av6A9ODpnRhmiBzf7OzUs89A9b/eXd9iPNxIOA5cFVvZ66CWxR1aT91RJRFoPRG00ZmhNVTuSqQ8kKvVYKYOoMcHpN3PNfKgQHEQ4ACBFStWMK9U0AEciBlMZCeBAwcOMM8lPctaFQDl1NO8ypcOh6Uoh8XRyU//QvjeKa0Zv+P1GMDcVOfzZSfuqvzavr5rXFPlnXuibtcNPtp0QMCGgTp0wNVfVeYsYrame7le9/mVz/5pZPG3Z+5WH14gD9U7i5FldUDc3crnBe7i1cPsPPdglXkEoAPM44e9QaCCgIGdAXoUAAWyqKTyVrR/vLa+dMYtcHVNkJkhGcL8pa8746ptqf3pb6dUNEfMganMewd1Oi09rioUKpouOr+0u8odeno+wfTAaZ8w+gPUmtP1te53rlcqh0YaksVtqQMibuVT4wMe5xTieAcB/hGADuBfTOGRHQhU2xnQrFmzDRs2qN0F0DSUJMmZ7uXzCfpGPVTP9HpEwAN5YtjfPXTNuKcr9Vaur/XObz7XGZXH+67oxMjwopdHuyWqdBhUGPZ06+g3GCMNGD3zmclLujP67Gu9M3xb3MXgxGr+Qm6HVc1vyDYd4B//lNIBRSUyzZBhDQhwnQB0ANcjCPvtT0Aul7ds2VJXtjVQAdBuLNoRLJZIvYPuGaMDis4s/ZF5t12XMVrX12wzZXsyI9OnHBvyGiPFO7QZ6ak+9W9KwskRqu8zVI4TfJD3z0TG7AKiRt3XaXnNcVRknE/Eg5iqZwSYzlpAB5xRe++wyx6NOwvMFvUv+0Y9FEukM93xfgH6IMUCrwhAB/AqnHDGLgQOHjyoNb8aqwAo49ceiBRLpPsv39GfnFS2qnXFixp+NsHjL/d/dP6tnfEF4/FCwuGNwbuylBVm3l0zgPlMoKhRl5VHUxlCIfPB3pmd6zPGEKjNHxCybTRjwj9Rw24bzqjdWchI+KNHYxEhcnBs1rLdZ599P3DSLqVWsIAOOLvkI+XUykTNNjM0Rxgo/WX0hWhdeTIwQyyRLt4ZbJejC42CgLUJQAdYmzDq5zkBuVzevn17NR1gmgKgSO08HSeWSLedTtSak7SuvH7EhTGVMCFqMnBFuOYT/8xEfntVP5VM32yQZwDjp3nwrgnMeQYIUb3W/1u66VJG3IOSqJCrqyZ3Y0wTVOk6oz9AnhJ/bGhrZo9C869cLlxTDjYsurztlzaMIY0ix65zdM8nqHW0v/7xAfGXVn7OvLXRbMxGLbc2GED0SgFP31tiidTtSDTPD2W4J1QC0AFCjTz8thABtc4ABweH9evXP3/+3OTqj0lTxBLpusMxWlO+tpUPPH5m9tGLXh64x5+R1LXtUhK49WfGT3ZC9NLAFREM6ZAeMa8r4+l+KteLRLXr1nOo7AZwePkVFTGgogMePD+56HtmjwMhqtfiq58nLdy4bI1k+pierZlvPCJqtf75aCDDYPP7AxIjt/7IfJhB1Oi9gYsXr9noMnW881K/OL1ZXxPXFq+bYon033M3TY4pdgQBNhOADmBzdGAb2wkwOwOaNWtmpgKgvL0adVcskS7aGaqZkLSuSYz+tw/zt71DK+cdjE5+XTkv4dhQ5lMBokZdVyUwJxKIvbypO+NFBaodHqL6n7i4L9f73uHUoLldmUpDtQLlN1HtdhPcVXsvzNcBKem6nl0UNRl2iDkDsVakaitX7o0SS6SnAm6z/XCEfSBgEgHoAJOwYScQqCBAdQa8/PLLFlEAFNTE9GxqdPrNe4wf6LrS+YMi31V9mL+8Hd78bRtz0J/OHbN3TmjHmP1X5Nhlrepd/JJgr7U922iMPhQ5vPLtXI+gvBC1J/hVZ/ZNeSC/GXV2apcW+l5eTIjqtB36xwX1QYgW0AEP8o7M+aqu6ggGSns4/u9vP0bfg1rK1/yafF82a5O/WCKNSHyAox4EeEkAOoCXYYVTtiAgl8u/++67devWmXMXQNPQvILKt9v5x+dopiX1NXcjZndmpupabSefZz4EqF6eIQtijs9pz7hJT9T9aqaP+suNbsYGr587oVun9s0a1nN8uc27Xw+d+Nd534oxg6o6QNRg0N4oRuWV7d5O2LFkwpdvMoVKZVeAqGHbzmM37o1Sb9HA2QD1jw8obz0lfOWoL5pW3cao6oAQNegm0TY9os6xAhG3Kt/4kPXE9Hs9mlHGGhBgDwHoAPbEApZwjEB+fr5lFQDt//xtQWKJ9ERAhp4sbu9NJdfWM2f4d3htrFeMpg6g1qTfO3v8yKoVK6fPnDtRPF88f93y7RdOxRg/cbKu+nWuLwi6en79ypXTps+ZNH3RrGV/ux0K99OYolg/yQsRD6iHBuUKBR0gLIAAnwhAB/ApmvCFJwS2ed8QS6RbvRP0pyhrbc1MWTPqu849nJ1GiSe6rJy/ZveeIM2cXXDi968YswbW+cg1yNjxd9ayX6cs0PmjX48l//qkiiXS9QejeHJswQ0Q0CAAHaCBBCtAwN4EfELTxRLpkn/C9OQnK27K/G9Fb8aEgESdD12uxaol14QL4z9kvNpQ1Kz/1gdWNEmtdRt+Xb0/WiyRHpOm2PugQPsgYC0C0AHWIot6QcBkAvRQwbi7xfZIrs+PuHzGmIaHcGjaecRfp08E/Rccf88vMNxz+/qRX7dk3nkvn7GA+dihDfO0VfkkZpXO2nQNgwRNPpKxIycIQAdwIkwwUlgEiktk0zeWv2XgfLh9fmTHX13/zYvaRttXDbdT/b/WW794hfAl9zOFhfRG5bMbT/OKhHUIwlshEYAOEFK04St3CGw6dt2eQwQe5J5c0Y/5kgHVxM/8JnLsMNUjypBHHE25Pc/MyrZfpgYHrPQM586BA0tBwGgC0AFGI8MOIGADApcj/hNLpL//HZR8X2b7/FfR4qMTblO+eJ0xCICZ/all0Uvt+y/fGabl2T872WxhqbF0d3j5O5/8b9kg4mgCBOxFADrAXuTRLgjoI3D/SeVj6wE3DZhFwGp98omJ8Xs8NkwdP7pHty4dO3Ro27bdW29/8N4nXbr0GT1mzuYt59PVxw9azRLbCwt65oDUjBx9ocI2EOA4AegAjgcQ5vOXwPJ/w8qntfdJtX0KRIspD+SHpeVPbcz7O1ChIPl7lMEzECiDDsBBAAIsJXA68LZYIl24M8R+twYs3M3OLXmxcm/5C6APXkxi6fEBs0DAQgSgAywEEtWAgKUJ3H2YR71o4FrcU25lUB5YG56ST8FPSMu2dGBRHwiwiwB0ALviAWtAgCZAkuTqfRFiidTDXhML8uhmv7HSZPeF8mkEF+8Mxk0B+oDEAl8JQAfwNbLwiw8ErsXcq5jc/pqdJhQS6H2BxMzSOR6BYon0XHAaHw4j+AACeglAB+jFg40gYFcChcUyaj67o9f+M/YXLcqbTOBMaJZYIp0mkWL6ILse/mjcRgSgA2wEGs2AgGkEDl1KKh8tuAOjBW3XObHcs3yE4M7TcaaFDHuBALcIQAdwK16wVnAEsh5XTiTgG/XQ5B+42NFwAv7xT6kRgimYNkBwZ5tAHYYOEGjg4TaHCGw+HiOWSJd7RuIBQsPTuckl1x+OFUukq/eGkySmDeDQWQJTTScAHWA6O+wJArYhkJqRQ/1C9Y16ZHJ6w46GEKA7A66nPLJNcNEKCNidAHSA3UMAA0CgegJUl8Cyf8PRJWBIOje5zJqD5a93+mtfhAKdAdUflSjBEwLQATwJJNzgN4G0rFyqS+BMaJbJSQ476idw6fpjCnLc7cf8PpzgHQgwCUAHMGlgGQTYS2Dn6bjy6e63BSdklurPZ9hqAoGkLNkfFW8XdDsSjZEB7D0NYJkVCEAHWAEqqgQBKxB4lFMw3U1aPuP9lTQT8hx20U/AK6h8yiaxRJp+P9cK0UOVIMBeAtAB7I0NLAMBNQLHpCliiXSG+7Xw1Hz9WQ1bjSIQk1Y4e0tA+dsdz91UY46vIMB7AtABvA8xHOQPgQG8A5QAACAASURBVMJi2cLtQeUD2Q5EY8CgUZlef2H34+X3XOZ4+Oc+L+bP4QJPQMAwAtABhnFCKRBgB4EbtyrHsp0MzNCf27DVQAIXIh5QdwSC47LYEWRYAQI2JQAdYFPcaAwEzCew++xNsUQ6a9O1iFu4O2DuZMMx6YXUK4U2HbuO4YHmH5yogYsEoAO4GDXYLGgCz4tKF1TcHVi5NyopS2bgr14U0ySQfF+24Uj57IGuW/zxSiFBn1TCdh46QNjxh/fcJHAz7QnVle3pe0szvWGNgQSOXvuPwhiWcJ+bBwKsBgELEIAOsABEVAECtidw7Gr5swNiifRCxAMD0x6KMQlIb2RPq3gO899zN3FHwPYHMFpkDwHoAPbEApaAgBEEZHKF5HB0xUAB/9DkPGaGw3K1BKJuF1DDAlZ6hheXyo3gjqIgwDsC0AG8CykcEgyB3OfF1ECBBTtCYtOLqk1+KEARiM8oWVoxdeAcD/9HOQWCOV7gKAhoJwAdoJ0L1oIAJwik3c+d6e4nlkhX7ovCfMOGCJ2kLBn1ZuFpbtKEtGxORBlGgoBVCUAHWBUvKgcBqxOITn5IDRRwO3YDjw/olwLJ92XbTidSuAJi7lk9NmgABLhAADqAC1GCjSCgl8DF8Mpx75tPxkMK6JICyfdlO88mUyLghF+qXqLYCAICIgAdIKBgw1W+EiBJ8lTAbSrDeXgnQApoSoHk+7Ld5yufsDh4MQkPCPD1XIBfJhCADjABGnYBAdYRIEnyhF8qJQXQK6CmA5g9AZ4XEhQkybr4wSAQsB8B6AD7sUfLIGBRAkwpsPFYHIYNUmogKUs5JmDvhQSFAiLAoocdKuM+AegA7scQHoBAFQHmDYJV+6LwMGF8RvH6wzFUN8nBi0noCag6UvA/CCgJQAcoWWAJBHhAgCRJ37B0KvMt3BEi5CmGom4X/FExT4BYIj157RbGBPDg8IYL1iAAHWANqqgTBOxMIDr5ITWvgMsmf5/Ih2r3y4Xw9WrsE2rGwGlu0sDYTDvHA82DAIsJQAewODgwDQTMIJCWlUvNNiiWSPdevC2chwiS78uO+KVT7w6Y4xGQmI7Jgsw4jLCrAAhABwggyHBRqASe5RdvOBRF3SNYtS8q4tZz3vcEXE8rXFc1IGDV3vDHOYVCDT78BgFDCUAHGEoK5UCAiwRkcsXRK5XPzc/adM0r6F7yfRlf1cC58PuuWwIo3eN5PgEvEOLiEQubbU8AOsD2zNEiCNiaQPydJ/O3BVEJcs3B6/zrGLieVuh29Abl4BwP/8ikB7ZGjPZAgLMEoAM4GzoYDgLGEMgvLPnnbDyVKWe6Xzt0NZ0fEwwkZclOBGS4bPanXPM4EZuTX2wMGJQFAaETgA4Q+hEA/wVFICb1ET14cMH24LNh97l7myD5vsw36tHiXaGUApjrERB28z4eDhTU8QxnLUIAOsAiGFEJCHCGQEFR6dErKdRwerFE+ueeiIvRjzinBqQ3slfvj6YUQPkDET4JeQUlnIkBDAUBNhGADmBTNGALCNiKwIPsgu2nKm+oiyXSlXujOKEGku/LrsY+WXvwOq0ANh27nvEwz1bY0A4I8JAAdAAPgwqXQMBAArfuPXM/qsypi3aGHve/G59RwsIHChIyS72D7i2tmh9QLJGuOxCZkJaNGwEGxhrFQEAXAegAXWSwHgSEQiDpv6dMNTBr07VtpxMDbuaw5GZBSFLuzrPJs6seCCxXAAcj424/hgIQygEKP61MADrAyoBRPQhwhMC9R/n7fROp2YipXvfFu0I9fW8FJjyziyAISc7df/kOswNgupv033M307JyOUIUZoIANwhAB3AjTrASBGxD4HlRqTQqY4VnGH0DXiyRztsWvO104oXIh/EZxVa9ZZBwr+Ri9KOdZ5MX7ghhGrD0n5CL4f/lPsdIQNscBWhFWASgA4QVb3gLAoYQIEky7X6ut/+tpf+o5GOxRLp0d/i204leQfcCE56ZPwNBYmZpcOKzU8GZO84k/bkngn6KgRIBi3YEH5OmpGbk4H3BhkQNZUDANALQAaZxw14gIAgCJEnee5TvG5budiRaLUmLJdJpbtIlu8LWH47dfibp4NW0U8GZF6MfBdzMCU/Nj7r9PPpOQUxaYfSdgqjbz8NT8wMTci5FPz4dknnoavrOs8mSI7F//BM23c2P+bufWl5/MOp8SNp/93MxAkAQBxmctDcB6AB7RwDtgwBHCBQWyxLSss8Fp209Gfv71kDN/G3ymjkeAZuPx5wJvBN3+/HzwlKO8ICZIMATAtABPAkk3AABWxIgSfJZfvHNtCeXIv47eiVlm/eNv/ZFLNgeNH2jlt/3tD6Y7uY3f1vQ6r3hf3vdOHw52TcsPe7246d5Rfjdb8vYoS0QUCMAHaAGBF9BAARMJ0CSZEFR6cPs/A4ff/niyy2dhoy+n/38UU7hk2eFz4tKcZvfdLLYEwSsRgA6wGpoUTEICJXAnj17iKpPeHi4UDHAbxDgBgHoAG7ECVaCAFcIyGSytm3bVskAok+fPlyxHHaCgDAJQAcIM+7wGgSsRcDT05MWAdRCRESEtRpDvSAAAmYTgA4wGyEqAAEQqCKg1hlA6QB0CVThwf8gwEYC0AFsjApsAgGOEtDsDECXAEdDCbOFQwA6QDixhqcgYF0CWjsD0CVgXeioHQTMJgAdYDZCVAACIFBBQFdnALoEcICAAJsJQAewOTqwDQQ4Q0BPZwC6BDgTRRgqSALQAYIMO5wGAUsT0N8ZgC4BS/NGfSBgMQLQARZDiYpAQLAEZDLZ22+/TSV7Pf/27dtXsIjgOAiwlgB0AGtDA8NAgDME9u7dqyf9MzdFRkZyxisYCgLCIAAdIIw4w0sQsBoBAzsDKDWALgGrxQEVg4CJBKADTASH3UAABCgChncGUFIAXQI4ckCAVQSgA1gVDhgDAhwjYFRnALoEOBZdmCsMAtABwogzvAQB6xAwtjMAXQLWiQNqBQHTCUAHmM4Oe4KAwAmY0BmALgGBHzNwn4UEoANYGBSYBALcIGBaZwC6BLgRXVgpGALQAYIJNRwFAYsSkMlk9evXp5K6Cf927drVouagMhAAARMJQAeYCA67gYDACezbt09X+heJRPQm5jK9klqIiooSOEO4DwJsIAAdwIYowAYQ4BgBmUz2zjvvqOV1giCaNGmycuVK5qbevXvPmDGjTp06moX79evHMbdhLgjwkQB0AB+jCp9AwMoENDsDKAWQm5tbVlb27rvv0lnf2dm5rKwsKytrxowZNWvWpNdTC+gSsHKgUD0IVE8AOqB6RigBAiDAJKDWGdC4ceMVK1ZQCoAqpqkDqPVZWVnTp0+vXbs2rQbQJcAEi2UQsAsB6AC7YEejIMBhAnRngKYCoLzSpQOorZmZmTNmzKDVALoEOHwowHReEIAO4EUY4QQI2IoA1RmgSwFQVujXAVQZWg2gS8BWoUM7IKCdAHSAdi5YCwIgoJXAuXPn1O4CaBYzRAdQe1FqICEhQbMSrAEBELANAegA23BGKyDAEwIkSVbrieE6gKrKkDqrbRQFQAAETCMAHWAaN+wFAiCgk4CxOkBnRdgAAiBgfQLQAdZnjBZAQGAEoAMEFnC4y20C0AHcjh+sBwEWEoAOYGFQYBII6CIAHaCLDNaDAAiYSAA6wERw2A0E7EEAOsAe1NEmCPCaAHQAr8ML5/hGADqAbxGFPyBgdwLQAXYPAQwAAcMJQAcYzgolQQAEDCIAHWAQJhQCAXYQgA5gRxxgBQjwiAB0AI+CCVf4TwA6gP8xhocgYGMC0AE2Bo7mQMAcAtAB5tDDviAAAloIQAdogYJVIMBWAtABbI0M7AIBzhKADuBs6GC4EAlABwgx6vAZBKxKADrAqnhROQhYlgB0gGV5ojYQAIEy6AAcBCDAIQLQARwKFkwFAW4QgA7gRpxgJQhUEIAOwIEAAiBgYQLQARYGiupAwJoEoAOsSRd1g4AgCUAHCDLscJqrBKADuBo52A0CrCUAHcDa0MAwENAkwDEdQJKkouJDkqSmM1gDAiDABgLQAWyIAmzgLgEq09kszXFDB5AkmZmZuXv37lGjRnXv3r1Hjx7Dhg3buXNnVlYWdyMNy0GArwSgA/gaWfhlVQLFxcUXL16cN29e7969e/To8dtvv926dYtWA3K5nF62rBkc0AElJSV//vln7dq1CY2Po6Ojt7e3ZYmgNhAAATMJQAeYCRC7C42AXC4/fvw488Sh0l3t2rUXL15cUlKyadOmjh07jhgxIjc31+Jw2K4DiouL+/XrRxGZNGlSYGBgdnZ2VlbWhQsXJkyYQBBE7dq1b9++bXEuqBAEQMBkAszLmbOzs8n1YEcQEAKBgoKC0aNHU2nu1Vdf3bBhQ3Z2dl5e3u7duxs3bkwQRLdu3ehfwadOnbI4E1brAIVCMXbsWMp/iUTC7BIhSfLEiRNNmjQhCGLGjBkW54IKQQAETCYAHWAyOuwoNAI5OTldunSh0ly7du3S0tKYBKRSqYODAy0CCIKIj49nFrDIMqt1gJ+fH01HJpMxHfb39xeJRNTWXr16MSUCsxiWQQAEbE8AOsD2zNEiFwmUlJT89NNPVCJzdHRMSUlR84IkyREjRtA6oEGDBsXFxWplzP/KXh1AkuSwYcMo/11cXNRcnTRpEo0G/QFqcPAVBOxLADrAvvzROicIkCTp6upKJ7I1a9ZoNXvbtm10mZ9++kmhUGgtZs5K9uoAuVz+6quvUv4PHTpUzfl169ZRm1q1aqWpocwhgn1BAATMJAAdYCZA7C4EAsHBwS+88AKVyF5//fWioiKtXjO1wqpVq7SWMXMle3WATCajnxF44YUX5syZk5aWRj84IZfLvby89u7d+/jxY/0ISJLcvn375MmTMzMz9ZfEVhAAAYsQgA6wCEZUwmMCpaWlnTp1on/oz507V6uzCoXim2++oYsFBgZqLcZcSZKkh4fH8OHDb926xVyvZ5m9OkAul7do0YL2n1po06bNiBEjNm/e/OjRIwPHBFy9epXad9u2bXpAYBMIgIClCEAHWIok6uErAW9vb2Z2u379ulZP8/Pza9WqRZWsX7++rj4D5r6BgYFU+fXr1zPX61lmrw74/7mDJk6cyCTFXHZ0dPzrr7/UBg9q9XPq1KnUjv7+/loLYCUIgIBlCUAHWJYnauMZAYVC0bdvXzqjtW3bVi6Xa/XxypUrdLEePXqo3R/Xusvs2bOpXXx9fbUW0FzJXh1QVlaWlpbWtGlTmoLmglgs1s9FoVC8//77BEHUqlWroKBA03+sAQEQsDgB6ACLI0WFfCLw7NmzGjVq0Blt3Lhxurq3ly5dShdbvnx5tRAUCsUnn3xCEIRIJHr27Fm15akCrNYBZWVlqamp3bt3p0FoLoSEhOhx9cGDB9Qu33zzjS7QenbHJhAAARMIQAeYAA27CIfAtWvXmLlsz549Wn1XKBQ//vgjXfLatWtaizFX5uTkUE/Ud+rUSf+PZOZebNcBZWVlCoUiOTl5zZo1I0eO/Oijj+hpAyg6CxYsYPqjtnzixAmq2B9//KG2CV9BAASsRAA6wEpgUS0/CGzZsoXO7gRBqM0dRPtYVFTk6OhIlaxXr15hYSG9SdfCuXPnqPLz5s3TVUZzPRt1gEKhiI+PP3nypNprhEiSlMvlsbGxX375JQ1x7Nixaj/0ZTJZbm7ukydPHj9+LBaLqZLe3t7///XJkyf5+fmaFLAGBEDAggSM1QGPHj0KCQmJi4vTvNKRJJmTk5OUlJScnKy51YI2oyoQsBmBVatW0Sns9ddf1zU4gB7xRxDEDz/8QP++L6740ImvuLg4MzMzveIzffp0quZ///03LS0tPT390aNH1frFOh1QWFg4cuRIypMXX3xR67sD7ty5Q0+1OG3aNDUn6YGBNGjmAiYfVMOFryBgcQKG6wCSJL28vKgJwgmCeO2119zc3EpKSsrKykiSvHHjxpgxY2rWrEmdwm3atDl27Bh9+bO42agQBGxDYO3atXRWYiZ4tdaZcoHu0pbJZO+9956joyM9saCLiwtdm+ZCly5dqj1lWKcDdu/ezfRE68N+crm8VatWVLGDBw+qsTt69Ogff/yxZMmSadOmUWU6dOjw/xCpz5UrV9TK4ysIgIBlCRiuA44dOyYSiZo2bTphwoQXX3yROmGHDRtWUlIyb9486usXX3wxefJkeg52a7xnxbLuozYQ0E/g77//po5tgiBGjhypNU8rFArm2Dg6c924cYMgiHfffZfuRTh//vzatWvXrFmzaNEiqtr3339/bdXHz89PvzFlZWXs0gEkSQ4dOpQGRBAE7TzTk4cPH1KDLZs0aaLnJYz04IDVq1czd8cyCICAVQkYqANycnKaNWtWv3795ORkkiTd3d3pc3/AgAEEQbz88su+vr5yubygoGDhwoWNGjVS6yC1qheoHASsRODmzZv0oT5u3DitrcTExNDPFLzwwgt5eXlUsTVr1hAEIRaLNfc6f/48Ve2SJUs0t+pZwzodMHjwYBpQv379NGcIIElyyZIlVJmlS5fq8Y2+UxIcHKynGDaBAAhYloCBOmD9+vUEQcyfP59q/dSpU/S5TxBEmzZt7ty5U1ZWJpPJnJyc6E1vv/02/UvIsmajNhCwDQG5XP7hhx9Sh7TWVwbcunWrbdu29DH/zjvvUMe8TCajTq6oqChNU3///XdqF62/nzXL02vYpQPKysq2bt1KEESNGjXWrl2rOXcSSZIXL16k7hd+8cUXmgVoxxQKxccff0wQRP369en7KPRWLIAACFiPgCE6QCaTtW3b9oUXXsjIyKAsoV8aQj39HBAQQK2/fv06fUEkCOKTTz6hB0xZzwXUDAJWJbB8+XLqqK5bt+6TJ0/otkiSvH79OnXju06dOlSZzz//nDrmfXx8CIL48ccfNU8BhUJBjaCvXbv28+fP6QoNWWCdDigoKHjrrbcIgujQocPGjRuTk5P//05hcXFxdna2r6/vyJEjqecGO3TokJ6ersfDJ0+eUAR79uyp9e6Lnn2xCQRAwBwChuiAyMhIgiC++eYb6opGkuTYsWPpfD9t2jT6tKWnBqe2rlu3zhzbsC8IsIFAQUHB999/Tx3SX331VWBgYHFxcXJy8syZMx0dHWvUqPH333/TPd/16tWLiYlJTExs3779Cy+8QEtkpiO5ubnUfQRDBgYyd2Td+ADKuKSkJGoSQPqiwFxo2LDhvHnzqtU7J0+epPYyZA4mNSj4CgIgYA4BQ3SARCIhCGLFihVUQ3K5/O2336bP9MTERNqAgoKCnj17UptGjRpFPU1Ab1VbyM/P1zNmSK0wvoKAHQnk5+ePHj1abUYcgiC6du165coVkiTz8vL69OlDnxTUwoYNG2iJzDSeHhywaNEi5npDllnXH0AZXVhYKJVKFy1a1LNnz28qPv3791+wYMHx48dzc3O1UlDzdsaMGRQ1Q+ZgUtsXX0EABMwhYIgOOHHixPjx45OTk6mG0tPT6esdfTeUtkEmk2VkZGRlZWl2h9JlysrKoqOj69evX69evbt37zLXYxkE2ElAoVDcvn17/vz5vXr16tmz5y+//BIUFMQ8yGUy2bFjx8aOHfvDDz/069fv9OnTutIfPTjA8NcK0ExYqgNo+xRVH13O0yWZC/TggNq1azPnHjGqEmaFWAYBEDCcgCE6QK22vXv30jpg4sSJalsN/Dpq1CiqEmqAoYF7oRgI2J0ASZIKhUJXhtK/lZp1lxocUKNGDfrJAmoSDl11Ml1muw5g2mr4Mj04gHmnRC6Xjxs3zsvLy/B6UBIEQMAEAibogEmTJtE6YP/+/SY0KpPJqNeSvfLKK3igwASA2IW7BOjBAfSIwrKyMrlc/ssvv+zdu7dav/ipA+jBAcy3D1C3T27cuFEtFBQAARAwh4CxOkAulzN3uXfvngmtx8XFUUpi4MCBhvwGMqEJ7AIC7CRADw5wcXGhLaQG2EZERNBrdC3wUwdQzyUTBHHy5EnK82fPnnXo0GH8+PG4QOg6FLAeBCxFgJnUnZ2dq602KyuL7gxgTpRW7Y7MAh4eHlQlmzdvZq7HMgjwngA9QeGBAwcoZ3Nzczt27Pjzzz8bkvL4qQM8PT2pKwI1SPD58+c//fTTe++9l5OTw/sDAg6CgN0JGKsDDh06ROuASZMmmWA/SZLDhw+nKklKSjKhBuwCAtwlQHeBnzt3rqys7Pnz5717927Xrt3Tp08NcYqfOiAvL4+6En399deLFi1q0aLFe++9p+vdjoZgQhkQAAHDCRirA6ZMmULrAKMGB+zdu/f333+fPXu2i4sLNTigRo0a06dPd3FxmT179qVLlwy3GSVBgLsEioqKOnXqRM2yNWfOnNdee+29994zfLQsP3VAWVlZZmbmzJkzv/zyy++++87NzY351AB3gw3LQYATBIzSAXK5/IMPPqB1AD29YLWeKhSKN998k95Rc2HHjh3VVoICIMAPAtnZ2YsWLfr+++979OixadMmo1Ieb3UAFdr/fxmBIXdH+HEcwAsQYAkBo3TAgwcP6BTerl07o4b6l1R8iouLN23aRFWyY8cOamVJSQnzOWyWkIEZIGBVAqalPJ7rAKsSR+UgAAJaCRilA44ePUrrgAkTJpgg3EmSHDZsGFVJamqqVpOwEgRAQBcB6ABdZLAeBEDARAJG6QCxWEzrAE9PTxOalMvlr732GkEQrVq1Qh+ACQCxi8AJQAcI/ACA+yBgeQKG6wCFQkGNb6KkgP6Xh+kyNDExkdp91KhRuspgPQiAgC4C0AG6yGA9CICAiQQM1wHFxcV169alsninTp2MGhxAG0c/PI2BgTQTLICA4QSgAwxnhZIgAAIGETBcBxQUFLRo0eL/Xzzo4OBw+PBhg2pXLcQcHEC/tUi1CL6BAAjoIwAdoI8OtoEACJhAwHAdUFZWdu/evQMHDsTHx5swQpCaRJ0aHPDqq6+a1p1ggoPYBQT4RAA6gE/RhC8gwAoCRukAMy2mBwcMHjyYVhIKhSIuLq6goMDMyrE7CAiBAHSAEKIMH0HApgRsqQO2bdtGDS9wd3ennbxy5QpBEJhgmAaCBRDQQwA6QA8cbAIBEDCFgC11wJgxYygdEBkZSdkql8t//PHH3r17090DpviAfUBAMASgAwQTajgKArYiYEsdMHToUEoHUBOpkiS5YsWKBg0aYEIhW0Ub7XCeAHQA50MIB0CAbQRsqQM2b95M6YC4uLinT5/OmzevZs2aZ8+eZRsT2AMCrCUAHcDa0MAwEOAqAVvqgNLS0iFDhhAEUatWrZo1a7Zv3/7KlStcBQe7QcAeBKAD7EEdbYIArwnYUgeUlZWRJBkbG3v8+HGpVFpaWsprtHAOBCxPADrA8kxRIwgInICNdYDAacN9EDCTAHSAmQCxOwiAgDoB6AB1IvgOAiwmAB3A4uDANBDgJgHoAG7GDVYLlAB0gEADD7dBwHoEoAOsxxY1g4DFCUAHWBwpKgQBoROADhD6EQD/OUUAOoBT4YKxIMAFAtABXIgSbASBSgLQATgUQAAELEwAOsDCQFEdCFiTAHSANemibhAQJAHoAEGGHU5zlQB0AFcjB7tBgLUEoANYGxoYBgKaBKADNJlgDQiAgFkEoAPMwoedQcC2BKADbMsbrYGAAAhABwggyHCRPwSgA/gTS3gCAiwhAB3AkkDADBAwhAB0gCGUUAYEQMAIAtABRsBCURCwNwHoAHtHAO2DAO8IQAfwLqRwiM8EoAP4HF34BgJ2IQAdYBfsaBQETCMAHWAaN+wFAiCgkwB0gE402AAC7CMAHcC+mMAiEOA4AegAjgcQ5guLAHSAsOINb0HABgSgA2wAGU2AgKUIQAdYiiTqAQEQqCQAHYBDAQQ4RAA6gEPBgqkgwA0C0AHciBOsBIEKAtABOBBAAAQsTAA6wMJAUR0IWJMAdIA16aJuEBAkAegAQYYdTnOVAHQAVyMHu0GAtQSgA1gbGhgGApoEoAM0mWANCICAWQSgA8zCh51BwLYEoANsyxutgYAACEAHCCDIcJE/BKAD+BNLeAICLCEAHcCSQMAMEDCEAHSAIZRQBgRAwAgC0AFGwEJRELA3AegAe0cA7YMA7whAB/AupHCIzwSgA/gcXfgGAnYhAB1gF+xoFARMIwAdYBo37AUCIKCTAHSATjTYAALsIwAdwL6YwCIQ4DgB6ACOBxDmC4sAdICw4g1vQcAGBKADbAAZTYCApQhAB1iKJOoBARCoJAAdgEMBBDhEADqAQ8GCqSDADQLQAdyIE6wEgQoC0AE4EEAABCxMADrAwkBRHQhYk4BQdMDo0aMbVn06depkTaSoGwSETgA6QOhHAPznFAGh6ABnZ2ei6tO+fXtOxQjGggDHCEAHcCxgMFfYBKADhB1/eA8CViAAHWAFqKgSBKxFADrAWmRRLwgIlgB0gGBDD8e5SAA6gItRg80gwGoC0AGsDg+MAwFVAtABqjzwDQRAwGwC0AFmI0QFIGA7AtABtmONlkBAIASgAwQSaLjJDwLQAfyII7wAARYRgA5gUTBgCghURwA6oDpC2A4CIGAkAegAI4GhOAjYkwB0gD3po20Q4CUB6ABehhVO8ZUAdABfIwu/KgmQJJmTkpx+7uyNze6hC+cFz52NP2sTuDJtyqWpv1J/0hliazeH+mkCoQt+j924Ie2099OEm6RcjqsACBhCADrAEEoow0kCssLCtDOnrk391cfZCX8gIDQC0knjbx0/Wpqfz8mzF0bbkAB0gA1hm9SUQqG4f/++p6fnnDlzZs2atWDBAi8vr7y8PJIkTapPKDs9iY3x+3UCfemXjhsTufD3RLf1yVvcUzw24Q8EeEkgceOGqMUL/Cb8Qh/5V8eNeRAaIpTTHn6aREAoOmDHjh2/VX2WLVtmEis77HTnzp1+/fpVvRhB+X/dunU3btyoUCjsYBPrmyQVisR//6Gug75DB91YtfyJz/niSECreAAAIABJREFU6Ej8gYBwCDy9fDF+3eqLwwdTJ8KNLe6K0lLWn7sw0D4EhKID7EPXvFb9/f2bNGlCEETz5s1dXV3Pnz9/6dKlXbt2jRo1ysHBgSCIAwcOmNcCD/cmFYobmzdS177g6VOzL/oI59IPT0FAjcAz6eUw11nU6RC1agWkAA8veZZwCTrAEhStUEdMTEzjxo0JgnjrrbcyMjKYLeTl5VGdBO3atZPJZMxNWE7y/Je66sX9tbIoMlztsoivICA0AkVREUnukspegc3uuESAgCYB6ABNJvZfI5fLv/rqK+o2gJeXF9MgmUzWp08f+g7B48ePmVsFvpwdH1cpAlavKIqKENoVH/6CgC4CtBR4EBos8KsE3NckAB2gycT+a4KCgqhM36RJk5KSEqZBYWFhtAhwdHQsKChgbmXPsu2HMcqLi69Nmezj7BQk/q0QPQEYDwECDAJFURFhc1x8nJ2ujhtTkpfHngsFLGEDAegANkRB3Yb58+dTyb5x48aFhYXMzXFxcbQOmD17tu3TLdMYXcs5OTmjR48+dOiQrgLWWH/X94KPs5PvkIEYFajrRyHWC5nAM+mVSyOG+Dg73Tp2xBonIOrkLgHoADbGbvz48XSynzhx4v379+lHA0iSPH78+NSpU/ft2yevbp6Q+/fvb9my5caNGzZwkiRJhUJx9+7dDRs2tGzZkiCIlStX2qBdqgmSJANnTfdxdor58w8hX+vhOwjoIXBz/RofZyfpxF8wxZDNLk2caAg6gI1hmjZtGq0DCIKoXbt2ly5dXF1djx8//uzZMwP7ABQKxddff00QxLfffmvgLnROpWWHIXQUCsWUKVP69u37wQcfMM22pQ7Iv3uXGhnw6OxpPddBbAIBIRPIuXKJOk2y4+MMObVRRiAEoAPYGGgvLy9mQmUuN2zYcOHChUVFRdXanZycTO04fPhwo3TA0aNHP/30U8OlgEKhaN++/Ztvvtm9e/eFCxcOGjSIateWOiDjymUfZ6fLPw/H8EAh5zn4Xi0B/8njfZyd7nidrPYCggLCIQAdwMZYl5SUfPbZZ8z0r7b83XffqY0b0HRj8+bN1F4bN27U3Kpnjbu7e7NmzQzXAdQdAYVCQakNV1dX2+uAmzu3+zg7hc1xqfY6iAIgIGQC0X8s8nF2ur5hnZ4rADYJjQB0AEsjnpWV1atXL7X0z/z6559/6jGdJMmhQ4dS5aOjo/WU1Nzk5uZmlA5Qq8EuOiBy5Z8+zk7xa1YJ+RIP30GgWgLJFbNsBf/uqnba4quQCUAHsDf6CoUiPDx89uzZX3/99YsvvsgUAQRBvPfee3rGCcrl8tdff50giGbNmukpptX5DRs2cE4HhC9d7OPslLBhbbXXQRQAASETSN3m4ePsFOgyQ+u5j5XCJAAdwK64y+Xy//7779mzZ0yzFApFaWlpdHR0z549aTVQs2ZNzckEFVWflJQUquSwYcPkcjm1mlmnnuX169dzVQdI1gn5Eg/fQaBaAre2b63QAdP1XAGwSWgEoANYFPHQ0NCPPvqIIIj69et7e3trWlZaWkoVIAiiUaNGajogOTmZGq/3xhtvNGvWjNIBjo6OLVu2bNWqVevWrR89eqRZp+aadevWQQdUez1FARDgIgHoAM0rHtYIRQdMnjy5RdWna9euLAx8UVHRK6+8Qv/c/+GHH7SO1Js3bx5V5uuvv1YrEBYW1r/i069fv5deeokq1rt3b2rlmDFjSg174Rh0ABev77AZBAwhAB3Awou/3U0Sig5wdnamU2z79u3tzl3TAF9fX9pCgiAGDRqk+bAfSZKjR4+mirm7a3llCFnxKS0tbdGiBUEQLVu2lMvl1ErN2jRtoNZABxhyPUUZEOAiAegAXdc9Ia+HDmBL9I8fP07rAAcHBz8/P03LHjx40KBBA4IgmjZtqjaGgFmYnjlgxIgRhqd/ugZL6YAVK1bQdVp7oXKcIMYHMKaU52KWgs3WJgAdYO1rERfrhw5gS9SSk5NfeOEFgiA+//zzCxcuaObv0tLS/v37U1rh2LFjeuzevn07VWz79u16iunaBB1g7Wsx6gcBexGADtB13RPyeugAtkSfJMnhw4dTDwTu3bv36dOn8qpPUVHRmTNnvv32Wyq7L1q0SG1kANMHkiRHjBhBlUxKSmJuopZJkvT09Fyt+9OrVy9HR0fd28u3/Pfff2U6PvT8AcuXL9dRxPKr0R9gr7yCdrlFADrA8lcf7tcIHcCiGD5+/Jh6IwBBEDVq1Hj33Xc7duzYvn37Ro0aUXm9RYsWJ0+e1CMCysrK5HI59Zqf1157TevMAaWlpV999dWruj/UrQfd28u3nDlzRhc4Wgfon+lI1+6mrYcO4FY2grX2IgAdYNoVht97QQewK77FxcUHDhwYP35827ZtGzZsWKdOnaZNm3bu3HnSpEnHjx835LUC9MwBQ4YM0by5QHlbNcuA9v+p+wKlpaXaN1es1UON1gHLli3TU8yym6AD7JVX0C63CEAHWPbKw4/aoAPYGEeSJOVyuazqo78DQM2BHTt2UJ0HmzdvVttk4FdLjQ9YunSpgS2aXww6gFvZCNbaiwB0gPlXG/7VAB3At5iOHDmS0gExMTG0b4GBge7u7rq6B+hi1AJ0gL2u0WgXBKxNADpA7XKHr2VlZdABvDoM6MEBTZo0oWcNksvlH3/88ZgxY2ysA/744w+bwUV/gLXzB+rnBwHoAJtdlDjUEHQAh4JVvalPnz6lOgN69OhBZ/39+/fXrl07JSWl+v0rSliqP2DJkiUGtmh+MegAfmQpeGFtAtAB5l9t+FcDdACvYvr8+XNqEoJJkyZRjgUFBdWtW3fTpk2G+2mCDqBHFBYWFtJTN/7yyy+FhYXGvuXIcDuZJaEDrJ0/UD8/CEAHMK8bWKYIQAeYeyTomdfP3KqN35+ePKBFixbnzp2bN29evXr1XF1djRppaKwOIEmyf//+L730UpMmTRwcHKgOCfrfhg0bNmnSZOzYsXT/hPFuVb8HdAA/shS8sDYB6IDqrybCKyEUHbBx48YRVR9XV1eLBPr69esDBgzQ8yS9RVoxtpJnz55NmTLlxRdfrFmzZqdOnU6fPm1sAjZBB6xcufLXX3+dOXOmi4vL7NmzXV1dZ8+e7eLiMmvWrJkzZ06ePNnNzc1YM4xyHDrA2vkD9fODgGV1AEmSp0+fPnfunFFnKwqzjYBQdIBluVMKgCCITz75xKrpzWSzqakIjeoGoNsyVgfQO9pxATqAH1kKXlibgKV0AKUAPvnkkyZNmuTm5trx3EfT5hOADjCOIa0AqH7v06dPG7c/F0pDB1j7Woz6QcBeBMzXAbQCoK6BK1eu5MJVDTbqIwAdoI8Oc1tMTEyPHj3o295s7gxgmm3C8t27d7W+6MiEqmy2i8X7A57t+e27Zk2av2T03yuthxwPirTXVV6tXTUvXvtw/MVgttimZiq+MgiEZZ7ySo+wSqTM0QFqCoAgCHQG2OwSZ9WGoAOqxxsTEzNw4ECmAuBxZ0D1OFhZwvI6YPf4T2tpxrz6NaKX+h8KsMoVnJEnDK3/maoXtdr8fAE6gN2vZn56dtum4V++3d5akTJNB2gqAOpMQGcAKy+HRhsFHaAPmS4FwOPOAH04WLwNOkCrSoAO0IqFpSv9Dh8R9/rspRoigrCeYjNWB5AkeebMmU8//VRTAjdu3BgjA1h8UTTCNOgA7bBiY2O19gHQJwMvRwZoZ8GFtdABWnMbdIBWLCxcmX9iyci3HEVV1xc26AA9CoAyc8WKFVy4NsDG6glAB6gzio2NHTRoUNX5qP3/Dz/8kJ2PCag7I5jv1tYBDk0+HDpsuHhE9X/Txi4JDDG0397aCSnfa+2yUUqbp/+6KjqULbZZ23du1W8zxWZIf0C1CoC6LKIzgDfXV+gAZSgNUQDUCXDq1CnlblhiAQFr6wDr/T7jVrqCtVYiwBIdYKACIAgCnQEsuOxZzATogHKUhisAgiA+/vhjdAZY7AC0UEXs1QH+ZyL37w3cV/kXdPjUA2qcWsiFwHWu80cMGNH9h8F9B80ULz515GK+yhC2sAyvfUFVOwbu23fjYqiOJKReMvZicGVJXa1TDWnd6n/cy/XnMT1/HDLg57/+2pserqX/4NnFg6eXzVo4csDInt36fd9tcF9nlym/79/l9VDPEHetbUVHFlfPgTIg6M6JfTTGwP374i6HVfgYkPLvyjXjhoz56QenHn1+neB66ICvCsZQnxDJ3IXlnLsN6NlvysTZ+/4980yFsxYHn/oeOLV0+pxh5Q7279Z95KBRi+esuHDiSoGuHc3w7qnv0aB9e/1XDv6gprL3sdYbTjv2VBwz+w8kSClPtdip43jQV1JXf4DhCoAgCIwMsNB1iy3VCF0HGKUA0BnAlsNWww7W6gBtv/PCMvbMG/NeI/pmMHVciWq98v3Pq2OU4/mDw2d8Vl9ZqGa7EZseac1Dwdtc32HkkDofLtlbqQO0ta5MEppbz1/d5/b9q7XoRkWOnafsYWbNgst7do7p+oG67RUeiOq0/HjA2q2nmOXpRKXZ1oVgAzlUGBzu5fZtXWWeFNUfsdq/wHenpE+7JrS1lBW1Wvzvt823yxVJWIbnwokfNXFQK1Cj8ecDFwdfU3KgjSxf8D9y+LeeHV9U3YequebLX/adcfp0kEr5ioiY4V1ozOwvHZWOaSzVeP1X9wDNFk1eo6kDSJI8e/Zsp06dNNrWuQKdARpXIG6vsKkOaN269SPWfPz8/Pr27avzSNexoXnz5gsXLlyED8sIeM0Q+zg7JUjWmXx9VNtR25VdR+bQmpurVmrUM+ro5gnfaksz5UecqF6nsR6ZVfvme8/r01CZkBxaDj7up8WGx1tHvqeUAaL6X8yMrPoRr9G6ytNoGluHrp/4iUqKr9H8l7VXaDKPDi4a/Q5DmWg7R0S1Wvadsf2uRseARltGcCg3QFMHLJDM/VjFWKU5NZr2mrM/Zev4LmoagS4hqtWu/8okDSMLfP/+81uGDKLLKxdEdd/4YYPnVZoJtWCGd/bUASYoAIIgGjVqdPv2bdZcyGGIBQjMmDFDeYwTRHFxsSG6hjCkEFWmZ8+ezAawDALWILBqQH9O6ACHl9p2eLWmMrdrsBA17LzheFX/f8S5XT+9pCxc47Vx6y6pZaDiaKn3sDeUMx2IGvad70V3jGvkJ306wKFRs9eUI9bLLRO99L/dFys7pfNPLR/dWtlToGE4Y0WNZv9z8VTrulCzxDgOWnRAjVeavaT+SiuGCQ6NW7Z9qQZjhcZizbYzt/qpwAzau/bbpnrqrKpCVOuNPntOV8VIW3+AMd7ZRwcEzJp21sg+gCr38T//CUAH8D/GvPTQ2jpA5NiiU6dO31X394PTwijVAflq+a8CvqhO84/HTll0wN392LKpYzo0Uck9onq9flcm8nvrBrRWprMar/ddebeqt6Ayh0nXT2yhLCFq2nOXj/J2slrraqMd1bZqHBiiF7stTKF+NId7bevejGmnqMZLX/SZuOmvjWc2r/9n9si+bVT6CUSOHebvUPnRrK0tIzio9wdUcmzxw5DpO9dvOuO2dEn3t+oqFVOVK6K6bTsPW7N8/elNqyXDP2NwIgii5rs/b32qhBkcOutLle6DGo079Zq4ZY37mc1rt/7a+3MVVVHjrf6rbjG6E8zwLixpxZAfO3X67oOWzM4N5fH2ebcVu7TciVBRMEovtHQXqZVM3eax7Osv2zVvVsUI/4OAOgHoAHUi+M4JAtbWAQZCqPvRr4HV6YBab/TZdSKQvjoXXFg9tpWyW58gar49YrMyP/lvnv6Wcquo6U//MNJ8cXTkvTX9WyplQI1WA9bcY2QFtfxkgA6o0fyDXr/PXrB59sTxX77Vd85xqmvh4ZYRjFsPhKjmG8MWHWD+4i+4uHXR50xBI2ry9eyoqtsTxdGRapYQBGEcB7X7AuV5vOWIZceVYxGubZnxthJURbxqtuu34iYdjojznn1eYUqZ+l0XVKqc6Mjiq+snMjgSosY/Tt1J36Apjo7M3D21O6NrRlTvs1WHqgZjmu+dRg1qkaKPFvMXQtf99UOrli8YeECjmCAJQAcIMuzcd5ozOkDUqP9Cb9Vh5wGnhrdk5CfRi71XMlJs4NUJ79WhAyRqPGjJGeXuEb6efV5W7luz9dTNUmaqUMu+atlFbStBEHXeHnrCl+5OCMyuHLTou5fZClGz3aB1dxi/hqkWc4/M7skc91Drvfn/Kn/IqrdlLAd1HSBy/Gx6BJ3jy6WP/5GBqj0W9b/ecILZex92e0k3xnALou4nU0Orashc0+91pZwS1f1osr9ywCb1Izsw8LePGF0Odb4W78utklzmemdDHUCNEzz4y88///yzSKTZhUIfalgQLgHL6wBvb+9NLPh07NiRjmqzZs0oi6ZNm9a2bVt6vSELtWvXXrp06Tp8WEbA73dXq44PMOTYIAii+v6Aul+sOcZMTpHF0aFRsz5njhhv2GNpRlWCKY6OzD0o7qLMP6ImXecnVOXgAp9lQxk/Uuu0/+WSavZSy0/V6ABR3a4zDtG5Takn/Nb+0lyZJIla7y9kJHhlsXJRwszEdTpP2UvXpmYJYSwHdR1Qq+O4ncrOgHJcQZfHtVMKJoKo+/HUkKo0TxmZvXEw4yYLUafDZP/KGZ8Cz456UznGglCxnHYwd/+UzsoGRPW/m5dYFQhzvbO5Dgh0mV5WVpaUlDRq1CgDj2262Ouvv+7u7s6CizpMsBYBuVxuyBBAI8YJGlKdDco4OzvTx3H79u2ZLUql0q5du9Jbq11YuHAhc3css4GAtZ8bFDV867vvuvbtWs2f0/BlMYzOcM3+cNGLffapP7EWlrqwa33GYdew+5J0hg4oDj/u9m0D+oebqP7XkpOUkghLWfJjU+UGLdlLLT9VowNqvTd/t/IXPJ3/nnlO/oKRJB1aDPHS/kLFsMR53zIcEb3YcxktaNQsMZqDug6o12veKWW/SDmu4MDfPmQ+Wfji/5ZnMTFGRz7dOupdxq2DOh9MvEbpgIhT7t/VU0ZA1HDkatUhhFQ9/qt/bkzjJhxaDT1VxcFc7+ykA6gzl1IDRvUNeHt7s+Gshw32JcArHUChNFwNNGjQ4MmTJ/YNAFpXI2BtHaCWQekcWe2CWoZwaDFUM4mmL/2xoTILEeo6IDosdWn35nQCEtX7Ydbh8tv2Ed6buyr7uUWOX65V72lQvyuv5oWabUS9rh7n6ZsCyhFn2W7OrRjdAXU7TQtT/Z1NQ8iWDGT0rhOOn8/Q9QSj0RzUdYDjkD8v0+1WLAQHTe3I0AE1Wg2WZKvpgO2jmXP1KHVAyJ4lHzKUjqjuO52+H/BDN/W/bp3a1aPDQBD1um2ruoeiRtJo7+yqA6hTySg10LFjR8ylpnYJEuBXHuoAKopSqfS7775jXJO1L6JLgG0HPVd0QK03R55V7bovH+u3rLteHRBZfPmvsa/SqVjkWJGJ873m/k85SF/00vcL6PsFdIJUy0/6dYCocd8D2t6Y/Hj9gFcZ6c+x8+wbqn0edHNPNw9/mzazvGd+SnCVYlC3xFgOajpAVH/EKn+6XUoHBKvqgLbDNxmsA3bMbc/QAdpPeo21db9cU/WEp7nesUAHUGe04WoAXQJsuwba3h7e6gAKpVQq7dKli8Z5r7IiOzvb9tzRoi4CnNEBbVSe4KcyWfU6IFrqPbw1nalEdT//62jQzXnfKp80q9F0+PILqv3k5T/o1fOTautqWx1eG3yiqqObmWKfbhnOHImved+dLvx4ndMrqoohtkoxqLWlpkiq56CpA1br1wE132E+dlHRMfBUZ3/A7kUdaLoqp7m+L3U+XXHYoHkbq/euukjRhM1f0JxPUPOcSkxMHDlypP47Be+//z66BDTRCWoNz3UAFUv9amDRokWCCjnLneW7Doh8uuuXj+lUJarXY/aOLd2UgwYcXh9w+IqyJ5/OFvqzr/rWN0ac0eirKI6OzD8y43vl+DjCodmAI/5a2iqODo1WGfAoeqX/modVPfPqbakqkuozpVV1QIT3xm8Z4wNqtpq4+li898lq/k6dyax6saS53rFMB1Ane7VqAK9bY/lV0drmCUIHUBB1qYEGDRqgS8Dax5nh9fNeBxSH7lv2cZ2qH9ui+h2/7KJ8SK/muyM2Mx41VCZp/flJfetbo85p0wHFAW6/MqfgqfnWjK1qv8UrWow45dFN2UNBiOr9NPeEgTMb2lkHRAeeGdGKVlmEqH6/hac1O1cenjsWe/ZSdtUzArTYqrbfpXrvoiOf/TvhU6UFRK02o85rjUWVrmK2btSyIf0BzPOOUgMvvKBlxgG8cY0JSoDLAtIBZWVlJElevXpV804BugTYc+jzXwdEh8bM6cxIs4we61rvzvtHOTERMyuoZ3rVX+H6tzLqubi/H/OBwBqv/7hIc4jAw53jvlA+30iI6ndmPr5vSFv67o9YtT8gOjJjdZ/XlCMbRC92domsGtlQySH8hHuXBiJC5FCv8Ztt3v+mczfXtUqtYK530ZHP9kz6nKkDdPTNMIKiVHtGrTRWB1DneGJi4ogRIzTVALoE2HMNtL0lwtIBFF9KDXz77bf0BRhdArY/8nS1aG0d4NC007jxE+ZPNORv4rqNyomBzc8Q9FW+4OziQSoz31JHoog5HI8uTC3ob13/VmZVDzePYD5xR9R46fsJ7imMTPnoyNKxbzMH09do47SaOdeQIW3ZUQcUX147ntnnUaPJ9xO33Koa3FAcHZqwul97xjOHonqdVuqeT9Do0Q8Vs0R8y7j5Imrad7/UxEzPDJzmsmk6gDrvEhMTBw4cyFQD6BLQdUUSwnoh6gAqrmpqAF0CLDncra0DaPFnwEKtjuOVU9yYm/+Y/cARvvv6NVfOHlgpAxx7uB6ju9/Vrvv6W9e/VaWq8JPbe6g2LarV6uNes6fN2TTfZcmw7z9qrPw1TRCEwyvd/66c5KAymRnSlj11QHRQ8PTPlHdayl+yVKf1p71dp83ZPH/2Euev3mZ0dZTP/TxobRrjBoG53kVHFpxb0JcxRIEQ1e/4v4mS+a5/jnEaM0t5OKkEhXlsGLxsjg6gTvaEhARm3wC6BFhyDbS9GcLVARRrWg2gS8D2B5/WFgWhA6IjH7gPYQ7dL89WjbttPaPloX8qYejPT/q3qqWcgrNrJ6s8Pq9TEYnqvy+WnFW7v25IW3bVAZHF/v+u+or5igRdDorqtBlwQJW5ud5FRxaH6Hp2UdS032qtgz/UAmTgV/N1AHUC0moAXQJar0hCWMk9HbB69eo+VZ9ff/3VIkEiSfLKlSvnzp2zSG2oxBwCAtEBxUHbXdsxbiMTNV7rvYL5w1QtGejPT/q3qlVVPhru1Po5X7xCD1bUlidFtZp9PkfiTU8nTFdiSFt21gHRkfnn3ed/0Uzvy5VFdVv3cN+r8ipFi4wTLI4OvPbrh6qvfa4EXP/7BamMvgcaqWkLltIB1NmakJAwfPjwM2fOmHPyYl+OEuCeDuAoaJhtIAGh6IDo4MApjLfd1GgxcYPatHoqN5X1Z1/9W7WnmdCzFxeNHvT+y5pqQOTY8vtBM095B2jd0ZC27K4Dyi0POuE1c0DXlloysqh+y26D5/ieV75mkPbUXO+oXv1r+/8e+EHzGlUPhVTKAFGjzrOvK0cqqMSXNsDwBcvqAOr0fP78uYHnKYrxiQB0AJ+iyQdfLK4DDL+wCrJkQOr+TZ4LZy6d+MvsMWPnT5nl8ZdHhK+WdxNwFU6Ib9T2NdvniBePHzt77LiFU2d5/LUlzBYOBqcf2fzvXPGicaNdx01YNnvB3i37UrVN7mQyWGvoAD5cQeCD8QSgA4xnhj2sSQA6wOTEgB0FRQA6wJrXIWHVDR0grHiz31voAEElMzhrMgHoAPZfzbhiIXQAVyIlFDuhA0xODNhRUASgA4RyTbS+n9AB1meMFowhAB0gqGQGZ00mAB1gzHUFZfURgA7QRwfbbE8AOsDkxIAdBUUAOsD2Vye+tggdwNfIctUv6ABBJTM4azIB6ACuXuPYZzd0APtiImyLoANMTgzYUVAEoAOEfaW0pPfQAZakibrMJwAdIKhkBmdNJgAdYP7VBjVQBKADcCSwiwB0gMmJATsKigB0ALuuXFy2BjqAy9Hjo+3QAYJKZnDWZALQAXy8/tnHJ+gA+3BHq7oIQAeYnBiwo6AIQAfouoZgvbEEuKcDFi5c2LnqM3z4cGMdRnmWE4AOEFQyg7MmE4AOYPmljEPmcU8HODs7069Jbd++PYdYw1RDCEAHmJwYsKOgCEAHGHI9QRlDCEAHGEIJZWxHADpAUMkMzppMADrAdlclvrcEHcD3CHPNP+gAkxMDdhQUAegArl3b2GsvdAB7YyNMy6ADBJXM4KzJBKADhHmFtIbX0AHWoIo6TScQ8edSH2enm+vXmHx9xI4gIAQCqX9v8XF2CnKdafrJhj1BoIIAdAAOBHYRuL7uLx9np5jlS4VwKYePIGAygYQNa32cnUIXzWfXCQxrOEgAOoCDQeO1yalHDvk4OwVO/dXk6yN2BAEhEAib41Lec7ZzG6+vB3DOFgSgA2xBGW0YTuBhZLiPs5PvkIEFocFCuJrDRxAwgUBRZPjln4f7ODtlXLls+MmFkiCglQB0gFYsWGk3AiV5eb5DB/k4O6V77jbh+ohdQEAIBDKPHfZxdvJxdip4cN9u5yoa5gsB6AC+RJJHflyvuPEZOPXXoqgIIVzT4SMIGEuAuikQtmQhj857uGI3AtABdkOPhnURyElKpH7r3N613djrI8qDAO8J3D2wjzpBHoaH6jqJsB4EDCcAHWA4K5S0HYFYdzcfZ6eLwwfnXLnI+8s6HAQBwwnk+ftdGT3Cx9kpcsUykiRtd06iJf4S4J4OWLx48bdVn1GjRvE3NIL2rCQv7+qEsT7OTtcm/pJ77arhV0mUBAEeE8gPCgicOtnH2enSz8Px75I0AAAC9ElEQVSLnjwW9DUCzluOAPd0gOV8R02sJpB9M/7i8ME+zk5+48c+Onuaxxd3uAYChhDI9r3g/+uE8jsCgwc+DA9j9dkL4zhFADqAU+ESmLGPY6IvjhhSceEbkLBh7fOQIEMulygDAjwjUBAWkrzF3XfIQOqR2vtBAQK7EsBd6xKADrAuX9RuJoHc27cCZoqpUVGXRg6NW70i6/iRvEB/nl3o4Q4IaBLIDwq4f+LYzXV/UQMCym+TTZmUfTPezHMKu4OAGgHoADUg+Mo6AorS0uQD+yo7BiqemfZxdroyeoTf+LF+E37BHwjwkMD4sVfHjKTkL/Wv79BBCf/skBUWsu78hEHcJwAdwP0YCsODktzcO94ng1xn+gwewLw+YhkE+E0gYKY49ejhouxsYZzo8NIOBKAD7AAdTZpDQFZU9DQpMdNPmnHp4t1LvvgDAV4SuCe9mn0zHh0A5lwrsK+BBKADDASFYiAAAiAAAiDAQwLQATwMKlwCARAAARAAAQMJQAcYCArFQAAEQAAEQICHBKADeBhUuAQCIAACIAACBhKADjAQFIqBAAiAAAiAAA8JQAfwMKhwCQRAAARAAAQMJAAdYCAoFAMBEAABEAABHhLgng5YsWLFT1WfiRMn8jAmcAkEQAAEQAAEbEWAezrA2dmZqPq0b9/eVqDQDgiAAAiAAAjwkAB0AA+DCpdAAARAAARAwEAC0AEGgkIxEAABEAABEOAhAegAHgYVLoEACIAACICAgQSgAwwEhWIgAAIgAAIgwEMC0AE8DCpcAgEQAAEQAAEDCUAHGAgKxUAABEAABECAhwSgA3gYVLgEAiAAAiAAAgYSgA4wEBSKgQAIgAAIgAAPCUAH8DCocAkEQAAEQAAEDCQAHWAgKBQDARAAARAAAR4SgA7gYVDhEgiAAAiAAAgYSIB7OmD2/624WA8G/P39ifTnqLLREBgNgdEQGA2B0RAYDQHMEBh67QBMP4yKjIbAaAiMhsBoCIyGwGgIkBcCAIj7OGB+Pp1gAAAAAElFTkSuQmCC;" vertex="1" parent="1">
          <mxGeometry x="81" y="240" width="315" height="177.5" as="geometry" />
        </mxCell>
        <mxCell id="_YG597njgodiEOvkwe5J-2" value="" style="shape=singleArrow;whiteSpace=wrap;html=1;arrowWidth=0.4308080037434877;arrowSize=0.5640146891276032;fillColor=#ffe6cc;strokeColor=#d79b00;" vertex="1" parent="1">
          <mxGeometry x="396" y="288.75000000000006" width="50" height="80" as="geometry" />
        </mxCell>
        <mxCell id="_YG597njgodiEOvkwe5J-5" value="" style="endArrow=classic;html=1;rounded=0;" edge="1" parent="1">
          <mxGeometry width="50" height="50" relative="1" as="geometry">
            <mxPoint x="456" y="261.35" as="sourcePoint" />
            <mxPoint x="486" y="261" as="targetPoint" />
          </mxGeometry>
        </mxCell>
        <mxCell id="_YG597njgodiEOvkwe5J-6" value="$$s_t$$" style="text;html=1;align=center;verticalAlign=middle;resizable=0;points=[];autosize=1;strokeColor=none;fillColor=none;fontSize=18;" vertex="1" parent="1">
          <mxGeometry x="396" y="237" width="90" height="40" as="geometry" />
        </mxCell>
        <mxCell id="_YG597njgodiEOvkwe5J-7" value="" style="endArrow=classic;html=1;rounded=0;" edge="1" parent="1">
          <mxGeometry width="50" height="50" relative="1" as="geometry">
            <mxPoint x="516" y="261.35" as="sourcePoint" />
            <mxPoint x="546" y="261" as="targetPoint" />
          </mxGeometry>
        </mxCell>
        <mxCell id="_YG597njgodiEOvkwe5J-8" value="" style="endArrow=classic;html=1;rounded=0;" edge="1" parent="1">
          <mxGeometry width="50" height="50" relative="1" as="geometry">
            <mxPoint x="584" y="261.35" as="sourcePoint" />
            <mxPoint x="614" y="261" as="targetPoint" />
          </mxGeometry>
        </mxCell>
        <mxCell id="_YG597njgodiEOvkwe5J-9" value="" style="endArrow=classic;html=1;rounded=0;" edge="1" parent="1">
          <mxGeometry width="50" height="50" relative="1" as="geometry">
            <mxPoint x="651" y="261.35" as="sourcePoint" />
            <mxPoint x="681" y="261" as="targetPoint" />
          </mxGeometry>
        </mxCell>
        <mxCell id="_YG597njgodiEOvkwe5J-10" value="$$a_t$$" style="text;html=1;align=center;verticalAlign=middle;resizable=0;points=[];autosize=1;strokeColor=none;fillColor=none;fontSize=18;" vertex="1" parent="1">
          <mxGeometry x="458" y="237" width="90" height="40" as="geometry" />
        </mxCell>
        <mxCell id="_YG597njgodiEOvkwe5J-11" value="$$a_{t+1}$$" style="text;html=1;align=center;verticalAlign=middle;resizable=0;points=[];autosize=1;strokeColor=none;fillColor=none;fontSize=18;" vertex="1" parent="1">
          <mxGeometry x="574" y="237" width="120" height="40" as="geometry" />
        </mxCell>
        <mxCell id="_YG597njgodiEOvkwe5J-12" value="$$s_{t+1}$$" style="text;html=1;align=center;verticalAlign=middle;resizable=0;points=[];autosize=1;strokeColor=none;fillColor=none;fontSize=18;" vertex="1" parent="1">
          <mxGeometry x="506" y="237" width="120" height="40" as="geometry" />
        </mxCell>
        <mxCell id="_YG597njgodiEOvkwe5J-13" value="" style="endArrow=classic;html=1;rounded=0;" edge="1" parent="1">
          <mxGeometry width="50" height="50" relative="1" as="geometry">
            <mxPoint x="720" y="261.35" as="sourcePoint" />
            <mxPoint x="750" y="261" as="targetPoint" />
          </mxGeometry>
        </mxCell>
        <mxCell id="_YG597njgodiEOvkwe5J-15" value="$$a_{t+1}$$" style="text;html=1;align=center;verticalAlign=middle;resizable=0;points=[];autosize=1;strokeColor=none;fillColor=none;fontSize=18;" vertex="1" parent="1">
          <mxGeometry x="711" y="237" width="120" height="40" as="geometry" />
        </mxCell>
        <mxCell id="_YG597njgodiEOvkwe5J-16" value="$$s_{t+1}$$" style="text;html=1;align=center;verticalAlign=middle;resizable=0;points=[];autosize=1;strokeColor=none;fillColor=none;fontSize=18;" vertex="1" parent="1">
          <mxGeometry x="643" y="237" width="120" height="40" as="geometry" />
        </mxCell>
        <mxCell id="_YG597njgodiEOvkwe5J-17" value="" style="endArrow=none;dashed=1;html=1;dashPattern=1 3;strokeWidth=2;rounded=0;" edge="1" parent="1">
          <mxGeometry width="50" height="50" relative="1" as="geometry">
            <mxPoint x="792" y="260.65999999999997" as="sourcePoint" />
            <mxPoint x="820" y="261.01" as="targetPoint" />
          </mxGeometry>
        </mxCell>
        <mxCell id="_YG597njgodiEOvkwe5J-18" value="" style="endArrow=classic;html=1;rounded=0;" edge="1" parent="1">
          <mxGeometry width="50" height="50" relative="1" as="geometry">
            <mxPoint x="516" y="267" as="sourcePoint" />
            <mxPoint x="543" y="287.65" as="targetPoint" />
          </mxGeometry>
        </mxCell>
        <mxCell id="_YG597njgodiEOvkwe5J-19" value="&lt;font style=&quot;color: rgb(108, 142, 191);&quot;&gt;$$r_t$$&lt;/font&gt;" style="text;html=1;align=center;verticalAlign=middle;resizable=0;points=[];autosize=1;strokeColor=none;fillColor=none;fontSize=18;" vertex="1" parent="1">
          <mxGeometry x="515" y="267" width="80" height="40" as="geometry" />
        </mxCell>
        <mxCell id="_YG597njgodiEOvkwe5J-20" value="" style="endArrow=classic;html=1;rounded=0;" edge="1" parent="1">
          <mxGeometry width="50" height="50" relative="1" as="geometry">
            <mxPoint x="653" y="267" as="sourcePoint" />
            <mxPoint x="680" y="287.65" as="targetPoint" />
          </mxGeometry>
        </mxCell>
        <mxCell id="_YG597njgodiEOvkwe5J-21" value="&lt;font style=&quot;color: rgb(108, 142, 191);&quot;&gt;$$r_{t+1}$$&lt;/font&gt;" style="text;html=1;align=center;verticalAlign=middle;resizable=0;points=[];autosize=1;strokeColor=none;fillColor=none;fontSize=18;" vertex="1" parent="1">
          <mxGeometry x="641" y="267" width="120" height="40" as="geometry" />
        </mxCell>
        <mxCell id="_YG597njgodiEOvkwe5J-26" value="&lt;font style=&quot;font-size: 18px;&quot;&gt;m steps TD target for Agent j：&lt;/font&gt;" style="text;html=1;align=center;verticalAlign=middle;resizable=0;points=[];autosize=1;strokeColor=none;fillColor=none;" vertex="1" parent="1">
          <mxGeometry x="306" y="448.99999999999994" width="270" height="40" as="geometry" />
        </mxCell>
        <mxCell id="_YG597njgodiEOvkwe5J-27" value="&lt;span style=&quot;font-size: 18px;&quot;&gt;$$G_{t:t+m}^j=\sum_{i=0}^{m-1}\gamma^{i}r_{t+i}+\gamma^mQ_{target}^j(s_{t+m};\theta_c)$$&lt;/span&gt;" style="text;html=1;align=center;verticalAlign=middle;resizable=0;points=[];autosize=1;strokeColor=none;fillColor=none;" vertex="1" parent="1">
          <mxGeometry x="113" y="489.30999999999995" width="770" height="40" as="geometry" />
        </mxCell>
        <mxCell id="_YG597njgodiEOvkwe5J-31" value="step" style="swimlane;fontStyle=0;childLayout=stackLayout;horizontal=1;startSize=30;horizontalStack=0;resizeParent=1;resizeParentMax=0;resizeLast=0;collapsible=1;marginBottom=0;whiteSpace=wrap;html=1;fillColor=#f8cecc;strokeColor=#b85450;" vertex="1" parent="1">
          <mxGeometry x="493" y="310" width="60" height="120" as="geometry">
            <mxRectangle x="468" y="310" width="60" height="30" as="alternateBounds" />
          </mxGeometry>
        </mxCell>
        <mxCell id="_YG597njgodiEOvkwe5J-32" value="t" style="text;strokeColor=#d6b656;fillColor=#fff2cc;align=center;verticalAlign=middle;spacingLeft=4;spacingRight=4;overflow=hidden;points=[[0,0.5],[1,0.5]];portConstraint=eastwest;rotatable=0;whiteSpace=wrap;html=1;" vertex="1" parent="_YG597njgodiEOvkwe5J-31">
          <mxGeometry y="30" width="60" height="30" as="geometry" />
        </mxCell>
        <mxCell id="_YG597njgodiEOvkwe5J-33" value="t+1" style="text;strokeColor=#d79b00;fillColor=#ffe6cc;align=center;verticalAlign=middle;spacingLeft=4;spacingRight=4;overflow=hidden;points=[[0,0.5],[1,0.5]];portConstraint=eastwest;rotatable=0;whiteSpace=wrap;html=1;" vertex="1" parent="_YG597njgodiEOvkwe5J-31">
          <mxGeometry y="60" width="60" height="30" as="geometry" />
        </mxCell>
        <mxCell id="_YG597njgodiEOvkwe5J-34" value="t+2" style="text;strokeColor=#d6b656;fillColor=#fff2cc;align=center;verticalAlign=middle;spacingLeft=4;spacingRight=4;overflow=hidden;points=[[0,0.5],[1,0.5]];portConstraint=eastwest;rotatable=0;whiteSpace=wrap;html=1;" vertex="1" parent="_YG597njgodiEOvkwe5J-31">
          <mxGeometry y="90" width="60" height="30" as="geometry" />
        </mxCell>
        <mxCell id="_YG597njgodiEOvkwe5J-35" value="step transition" style="swimlane;fontStyle=0;childLayout=stackLayout;horizontal=1;startSize=30;horizontalStack=0;resizeParent=1;resizeParentMax=0;resizeLast=0;collapsible=1;marginBottom=0;whiteSpace=wrap;html=1;fillColor=#f8cecc;strokeColor=#b85450;" vertex="1" parent="1">
          <mxGeometry x="553" y="310" width="152" height="120" as="geometry" />
        </mxCell>
        <mxCell id="_YG597njgodiEOvkwe5J-36" value="(\( s_t,a_t,s_{t+1},r_t\))" style="text;strokeColor=#d6b656;fillColor=#fff2cc;align=left;verticalAlign=middle;spacingLeft=4;spacingRight=4;overflow=hidden;points=[[0,0.5],[1,0.5]];portConstraint=eastwest;rotatable=0;whiteSpace=wrap;html=1;" vertex="1" parent="_YG597njgodiEOvkwe5J-35">
          <mxGeometry y="30" width="152" height="30" as="geometry" />
        </mxCell>
        <mxCell id="_YG597njgodiEOvkwe5J-37" value="(\( s_{t+1},a_{t+1},s_{t+2},r_{t+1}\))" style="text;strokeColor=#d79b00;fillColor=#ffe6cc;align=left;verticalAlign=middle;spacingLeft=4;spacingRight=4;overflow=hidden;points=[[0,0.5],[1,0.5]];portConstraint=eastwest;rotatable=0;whiteSpace=wrap;html=1;" vertex="1" parent="_YG597njgodiEOvkwe5J-35">
          <mxGeometry y="60" width="152" height="30" as="geometry" />
        </mxCell>
        <mxCell id="_YG597njgodiEOvkwe5J-38" value="(\( s_{t+2},a_{t+2},s_{t+3},r_{t+2}\))" style="text;strokeColor=#d6b656;fillColor=#fff2cc;align=left;verticalAlign=middle;spacingLeft=4;spacingRight=4;overflow=hidden;points=[[0,0.5],[1,0.5]];portConstraint=eastwest;rotatable=0;whiteSpace=wrap;html=1;" vertex="1" parent="_YG597njgodiEOvkwe5J-35">
          <mxGeometry y="90" width="152" height="30" as="geometry" />
        </mxCell>
      </root>
    </mxGraphModel>
  </diagram>
</mxfile>
